<!-- Generated by scripts/generate-readme-overview-art.mjs -->
<svg xmlns="http://www.w3.org/2000/svg" width="1200" height="675" viewBox="0 0 1200 675" role="img" aria-labelledby="pf1ph4b-title pf1ph4b-desc">
  <title id="pf1ph4b-title">Nodejs Scraper project overview</title>
  <desc id="pf1ph4b-desc">Designer-style overview artwork for garethpaul/nodejs-scraper showing purpose, runtime, verification, and project surfaces.</desc>
  <defs>
    <linearGradient id="pf1ph4b-bg" x1="0" y1="0" x2="1" y2="1">
      <stop offset="0%" stop-color="#e3f4e9"/>
      <stop offset="48%" stop-color="#f8fafc"/>
      <stop offset="100%" stop-color="#ddf2fc"/>
    </linearGradient>
    <linearGradient id="pf1ph4b-stage" x1="0" y1="0" x2="1" y2="1">
      <stop offset="0%" stop-color="#102a18"/>
      <stop offset="58%" stop-color="#124c26"/>
      <stop offset="100%" stop-color="#104546"/>
    </linearGradient>
    <linearGradient id="pf1ph4b-accent" x1="0" y1="0" x2="1" y2="1">
      <stop offset="0%" stop-color="#16a34a"/>
      <stop offset="52%" stop-color="#0ea5e9"/>
      <stop offset="100%" stop-color="#f59e0b"/>
    </linearGradient>
    <linearGradient id="pf1ph4b-soft" x1="0" y1="0" x2="1" y2="1">
      <stop offset="0%" stop-color="#c7e9d4"/>
      <stop offset="100%" stop-color="#fdeac9"/>
    </linearGradient>
    <filter id="pf1ph4b-shadow" x="-20%" y="-20%" width="140%" height="150%">
      <feDropShadow dx="0" dy="18" stdDeviation="18" flood-color="#0f172a" flood-opacity="0.14"/>
    </filter>
    <filter id="pf1ph4b-miniShadow" x="-20%" y="-20%" width="140%" height="150%">
      <feDropShadow dx="0" dy="8" stdDeviation="10" flood-color="#0f172a" flood-opacity="0.12"/>
    </filter>
    <pattern id="pf1ph4b-grid" width="24" height="24" patternUnits="userSpaceOnUse">
      <path d="M24 0H0v24" fill="none" stroke="#94a3b8" stroke-opacity="0.16" stroke-width="1"/>
    </pattern>
    <style>
      .label { font: 700 13px ui-sans-serif, system-ui, -apple-system, BlinkMacSystemFont, "Segoe UI", sans-serif; letter-spacing: 0; text-transform: uppercase; }
      .body { font-family: ui-sans-serif, system-ui, -apple-system, BlinkMacSystemFont, "Segoe UI", sans-serif; letter-spacing: 0; }
    </style>
  </defs>

  <rect width="1200" height="675" fill="url(#pf1ph4b-bg)"/>
  <rect width="1200" height="675" fill="url(#pf1ph4b-grid)" opacity="0.65"/>
  <circle cx="201" cy="618" r="166" fill="#16a34a" opacity="0.10"/>
  <circle cx="1017" cy="104" r="192" fill="#0ea5e9" opacity="0.12"/>
  <path d="M66 560 C214 512 278 642 430 584 C576 528 676 408 838 462 C966 504 1034 426 1134 356" fill="none" stroke="#f59e0b" stroke-width="2" stroke-opacity="0.18"/>

  <rect x="48" y="38" width="1104" height="599" rx="34" fill="#ffffff" opacity="0.94" filter="url(#pf1ph4b-shadow)"/>
  <rect x="49" y="39" width="1102" height="597" rx="33" fill="none" stroke="#e2e8f0" stroke-width="1"/>

  <g class="body">
    <rect x="84" y="76" width="48" height="48" rx="14" fill="url(#pf1ph4b-accent)"/>
    <path d="M6 34V8 M6 34h32 M14 27v-8 M23 27V12 M32 27V6" transform="translate(98 90)" stroke="#ffffff" stroke-width="4" stroke-linecap="round" stroke-linejoin="round" fill="none"/>
    <text x="148" y="110" fill="#0f172a" font-size="39" font-weight="800">Nodejs Scraper</text>
    <rect x="910" y="78" width="196" height="36" rx="18" fill="#d7efe0" stroke="#94d5ac"/>
    <circle cx="934" cy="96" r="6" fill="#16a34a"/>
    <text x="950" y="101" fill="#1c322d" font-size="15" font-weight="700">Data system</text>
    <text x="86" y="166" fill="#475569" font-size="20" font-weight="500">A legacy Node.js scraping helper that fetches pages and exposes a</text>
<text x="86" y="193" fill="#475569" font-size="20" font-weight="500">jQuery-like</text>
  </g>

  <g transform="translate(84 222)">
    <rect x="0" y="0" width="622" height="328" rx="28" fill="url(#pf1ph4b-stage)"/>
    <rect x="1" y="1" width="620" height="326" rx="27" fill="none" stroke="#ffffff" stroke-opacity="0.12"/>
    <path d="M34 270 C116 228 166 286 250 236 C338 184 430 214 588 96" fill="none" stroke="#ffffff" stroke-opacity="0.12" stroke-width="2"/>
    <circle cx="76" cy="66" r="58" fill="#16a34a" opacity="0.20"/>
    <circle cx="548" cy="74" r="78" fill="#0ea5e9" opacity="0.16"/>
    <g class="body">
    <rect x="62" y="62" width="150" height="204" rx="24" fill="#ffffff" opacity="0.94" filter="url(#pf1ph4b-miniShadow)"/>
    <text x="92" y="96" fill="#0f172a" font-size="18" font-weight="800">dataset</text>
    <rect x="92" y="122" width="84" height="13" rx="7" fill="#b4e2c5"/>
<rect x="92" y="152" width="94" height="13" rx="7" fill="#e2e8f0"/>
<rect x="92" y="182" width="104" height="13" rx="7" fill="#b4e2c5"/>
<rect x="92" y="212" width="114" height="13" rx="7" fill="#e2e8f0"/>
    <path d="M214 164h82" stroke="#ffffff" stroke-width="5" stroke-linecap="round" opacity="0.8"/>
    <path d="M280 151l20 13-20 13" fill="#ffffff" opacity="0.82"/>
    <rect x="300" y="76" width="116" height="176" rx="26" fill="url(#pf1ph4b-accent)" filter="url(#pf1ph4b-miniShadow)"/>
    <text x="358" y="147" fill="#ffffff" font-size="20" font-weight="900" text-anchor="middle">model</text>
    <text x="358" y="176" fill="#dcfce7" font-size="13" font-weight="800" text-anchor="middle">transform</text>
    <path d="M418 164h62" stroke="#ffffff" stroke-width="5" stroke-linecap="round" opacity="0.8"/>
    <path d="M464 151l20 13-20 13" fill="#ffffff" opacity="0.82"/>
    <rect x="486" y="62" width="82" height="204" rx="24" fill="#ffffff" opacity="0.94"/>
    <rect x="510" y="212" width="11" height="30" rx="5" fill="#16a34a"/>
    <rect x="528" y="178" width="11" height="64" rx="5" fill="#0ea5e9"/>
    <rect x="546" y="136" width="11" height="106" rx="5" fill="#f59e0b"/>
    <path d="M506 118 C526 92 540 148 562 108" fill="none" stroke="#0ea5e9" stroke-width="4" stroke-linecap="round"/>
    <text x="527" y="96" fill="#0f172a" font-size="16" font-weight="800" text-anchor="middle">output</text>
  </g>
  </g>

  <g class="body" transform="translate(742 222)">
    <rect x="0" y="0" width="364" height="302" rx="26" fill="#f8fafc" stroke="#e2e8f0"/>
    <rect x="22" y="22" width="320" height="52" rx="18" fill="#ffffff" stroke="#e5e7eb"/>
    <text x="44" y="55" fill="#0f172a" font-size="20" font-weight="800">Project system map</text>
    <g transform="translate(24 94)">
      <circle cx="10" cy="15" r="6" fill="#16a34a"/>
      <text x="28" y="11" fill="#64748b" font-size="12" font-weight="800">STACK</text>
      <text x="28" y="34" fill="#1f2937" font-size="15" font-weight="650">JavaScript</text>
    </g>
<g transform="translate(24 145)">
      <circle cx="10" cy="15" r="6" fill="#0ea5e9"/>
      <text x="28" y="11" fill="#64748b" font-size="12" font-weight="800">SURFACE</text>
      <text x="28" y="34" fill="#1f2937" font-size="15" font-weight="650">Docs: README and project notes</text>
    </g>
<g transform="translate(24 196)">
      <circle cx="10" cy="15" r="6" fill="#f59e0b"/>
      <text x="28" y="11" fill="#64748b" font-size="12" font-weight="800">VERIFY</text>
      <text x="28" y="34" fill="#1f2937" font-size="15" font-weight="650">npm test</text>
    </g>
<g transform="translate(24 247)">
      <circle cx="10" cy="15" r="6" fill="#16a34a"/>
      <text x="28" y="11" fill="#64748b" font-size="12" font-weight="800">FOCUS</text>
      <text x="28" y="34" fill="#1f2937" font-size="15" font-weight="650">repeatable checks + network boundary</text>
    </g>
  </g>
  <g class="body">
    <rect x="84" y="574" width="137.2" height="30" rx="15" fill="#daf0e2" stroke="#9dd8b3"/>
    <text x="100" y="594" fill="#136e3e" font-size="13" font-weight="800">Data system</text>
<rect x="231.2" y="574" width="130" height="30" rx="15" fill="#d8f1fb" stroke="#9ad9f6"/>
    <text x="247.2" y="594" fill="#0e6fa0" font-size="13" font-weight="800">JavaScript</text>
<rect x="371.2" y="574" width="92" height="30" rx="15" fill="#fdefd8" stroke="#fbd699"/>
    <text x="387.2" y="594" fill="#9e6b17" font-size="13" font-weight="800">Docs</text>
<rect x="473.2" y="574" width="180.4" height="30" rx="15" fill="#daf0e2" stroke="#9dd8b3"/>
    <text x="489.2" y="594" fill="#136e3e" font-size="13" font-weight="800">repeatable checks</text>
  </g>

  <g class="body">
    <text x="84" y="613" fill="#64748b" font-size="15" font-weight="600">garethpaul/nodejs-scraper</text>
    <text x="1008" y="613" fill="#94a3b8" font-size="14" text-anchor="end">Source-aware README artwork</text>
    <circle cx="1028" cy="609" r="4" fill="#16a34a"/>
    <circle cx="1044" cy="609" r="4" fill="#0ea5e9"/>
    <circle cx="1060" cy="609" r="4" fill="#f59e0b"/>
  </g>
</svg>
